<svg width="1500" height="500" viewBox="0 0 1500 500" fill="none" xmlns="http://www.w3.org/2000/svg">
<rect width="1500" height="500" fill="white"/>
<rect width="1500" height="500" fill="url(#paint0_linear)"/>
<path d="M165.12 189L165.024 148.68L145.248 181.896H138.24L118.56 149.544V189H103.968V121.8H116.832L141.984 163.56L166.752 121.8H179.52L179.712 189H165.12ZM215.432 136.584C223.432 136.584 229.576 138.504 233.864 142.344C238.152 146.12 240.296 151.848 240.296 159.528V189H226.28V182.568C223.464 187.368 218.216 189.768 210.536 189.768C206.568 189.768 203.112 189.096 200.168 187.752C197.288 186.408 195.08 184.552 193.544 182.184C192.008 179.816 191.24 177.128 191.24 174.12C191.24 169.32 193.032 165.544 196.616 162.792C200.264 160.04 205.864 158.664 213.416 158.664H225.32C225.32 155.4 224.328 152.904 222.344 151.176C220.36 149.384 217.384 148.488 213.416 148.488C210.664 148.488 207.944 148.936 205.256 149.832C202.632 150.664 200.392 151.816 198.536 153.288L193.16 142.824C195.976 140.84 199.336 139.304 203.24 138.216C207.208 137.128 211.272 136.584 215.432 136.584ZM214.28 179.688C216.84 179.688 219.112 179.112 221.096 177.96C223.08 176.744 224.488 174.984 225.32 172.68V167.4H215.048C208.904 167.4 205.832 169.416 205.832 173.448C205.832 175.368 206.568 176.904 208.04 178.056C209.576 179.144 211.656 179.688 214.28 179.688ZM287.162 186.504C285.69 187.592 283.866 188.424 281.69 189C279.578 189.512 277.338 189.768 274.97 189.768C268.826 189.768 264.058 188.2 260.666 185.064C257.338 181.928 255.674 177.32 255.674 171.24V150.024H247.706V138.504H255.674V125.928H270.65V138.504H283.514V150.024H270.65V171.048C270.65 173.224 271.194 174.92 272.281 176.136C273.434 177.288 275.034 177.864 277.082 177.864C279.45 177.864 281.466 177.224 283.13 175.944L287.162 186.504ZM344.567 163.368C344.567 163.56 344.471 164.904 344.279 167.4H305.207C305.911 170.6 307.575 173.128 310.199 174.984C312.823 176.84 316.087 177.768 319.991 177.768C322.679 177.768 325.047 177.384 327.095 176.616C329.207 175.784 331.159 174.504 332.951 172.776L340.919 181.416C336.055 186.984 328.951 189.768 319.607 189.768C313.783 189.768 308.631 188.648 304.151 186.408C299.671 184.104 296.215 180.936 293.783 176.904C291.351 172.872 290.135 168.296 290.135 163.176C290.135 158.12 291.319 153.576 293.687 149.544C296.119 145.448 299.415 142.28 303.575 140.04C307.799 137.736 312.503 136.584 317.687 136.584C322.743 136.584 327.319 137.672 331.415 139.848C335.511 142.024 338.711 145.16 341.015 149.256C343.383 153.288 344.567 157.992 344.567 163.368ZM317.783 147.912C314.391 147.912 311.543 148.872 309.239 150.792C306.935 152.712 305.527 155.336 305.015 158.664H330.455C329.943 155.4 328.535 152.808 326.231 150.888C323.927 148.904 321.111 147.912 317.783 147.912ZM406.569 137.352V189H392.361V182.856C390.377 185.096 388.009 186.824 385.257 188.04C382.505 189.192 379.529 189.768 376.329 189.768C369.545 189.768 364.169 187.816 360.201 183.912C356.233 180.008 354.249 174.216 354.249 166.536V137.352H369.225V164.328C369.225 172.648 372.713 176.808 379.689 176.808C383.273 176.808 386.153 175.656 388.329 173.352C390.505 170.984 391.593 167.496 391.593 162.888V137.352H406.569ZM437.819 189.768C433.531 189.768 429.339 189.256 425.243 188.232C421.147 187.144 417.883 185.8 415.451 184.2L420.443 173.448C422.747 174.92 425.531 176.136 428.795 177.096C432.059 177.992 435.259 178.44 438.395 178.44C444.731 178.44 447.899 176.872 447.899 173.736C447.899 172.264 447.035 171.208 445.307 170.568C443.579 169.928 440.923 169.384 437.339 168.936C433.115 168.296 429.627 167.56 426.875 166.728C424.123 165.896 421.723 164.424 419.675 162.312C417.691 160.2 416.699 157.192 416.699 153.288C416.699 150.024 417.627 147.144 419.483 144.648C421.403 142.088 424.155 140.104 427.739 138.696C431.387 137.288 435.675 136.584 440.603 136.584C444.251 136.584 447.867 137 451.451 137.832C455.099 138.6 458.107 139.688 460.475 141.096L455.483 151.752C450.939 149.192 445.979 147.912 440.603 147.912C437.403 147.912 435.003 148.36 433.403 149.256C431.803 150.152 431.003 151.304 431.003 152.712C431.003 154.312 431.867 155.432 433.595 156.072C435.323 156.712 438.075 157.32 441.851 157.896C446.075 158.6 449.531 159.368 452.219 160.2C454.907 160.968 457.243 162.408 459.227 164.52C461.211 166.632 462.203 169.576 462.203 173.352C462.203 176.552 461.243 179.4 459.323 181.896C457.403 184.392 454.587 186.344 450.875 187.752C447.227 189.096 442.875 189.768 437.819 189.768ZM499.687 121.8H515.239V176.328H548.935V189H499.687V121.8ZM608.225 137.352V189H594.017V182.856C592.033 185.096 589.665 186.824 586.913 188.04C584.161 189.192 581.185 189.768 577.985 189.768C571.201 189.768 565.825 187.816 561.857 183.912C557.889 180.008 555.905 174.216 555.905 166.536V137.352H570.881V164.328C570.881 172.648 574.369 176.808 581.345 176.808C584.929 176.808 587.809 175.656 589.985 173.352C592.161 170.984 593.249 167.496 593.249 162.888V137.352H608.225ZM647.06 189.768C641.556 189.768 636.596 188.648 632.18 186.408C627.828 184.104 624.404 180.936 621.908 176.904C619.476 172.872 618.26 168.296 618.26 163.176C618.26 158.056 619.476 153.48 621.908 149.448C624.404 145.416 627.828 142.28 632.18 140.04C636.596 137.736 641.556 136.584 647.06 136.584C652.5 136.584 657.236 137.736 661.268 140.04C665.364 142.28 668.34 145.512 670.196 149.736L658.58 155.976C655.892 151.24 652.02 148.872 646.964 148.872C643.06 148.872 639.828 150.152 637.268 152.712C634.708 155.272 633.428 158.76 633.428 163.176C633.428 167.592 634.708 171.08 637.268 173.64C639.828 176.2 643.06 177.48 646.964 177.48C652.084 177.48 655.956 175.112 658.58 170.376L670.196 176.712C668.34 180.808 665.364 184.008 661.268 186.312C657.236 188.616 652.5 189.768 647.06 189.768ZM699.65 136.584C707.65 136.584 713.794 138.504 718.082 142.344C722.37 146.12 724.514 151.848 724.514 159.528V189H710.498V182.568C707.682 187.368 702.434 189.768 694.754 189.768C690.786 189.768 687.33 189.096 684.386 187.752C681.506 186.408 679.298 184.552 677.762 182.184C676.226 179.816 675.458 177.128 675.458 174.12C675.458 169.32 677.25 165.544 680.834 162.792C684.482 160.04 690.082 158.664 697.634 158.664H709.538C709.538 155.4 708.546 152.904 706.562 151.176C704.578 149.384 701.602 148.488 697.634 148.488C694.882 148.488 692.162 148.936 689.474 149.832C686.85 150.664 684.61 151.816 682.754 153.288L677.378 142.824C680.194 140.84 683.554 139.304 687.458 138.216C691.426 137.128 695.49 136.584 699.65 136.584ZM698.498 179.688C701.058 179.688 703.33 179.112 705.314 177.96C707.298 176.744 708.706 174.984 709.538 172.68V167.4H699.266C693.122 167.4 690.05 169.416 690.05 173.448C690.05 175.368 690.786 176.904 692.258 178.056C693.794 179.144 695.874 179.688 698.498 179.688ZM755.444 189.768C751.156 189.768 746.964 189.256 742.868 188.232C738.772 187.144 735.508 185.8 733.076 184.2L738.068 173.448C740.372 174.92 743.156 176.136 746.42 177.096C749.684 177.992 752.884 178.44 756.02 178.44C762.356 178.44 765.524 176.872 765.524 173.736C765.524 172.264 764.66 171.208 762.932 170.568C761.204 169.928 758.548 169.384 754.964 168.936C750.74 168.296 747.252 167.56 744.5 166.728C741.748 165.896 739.348 164.424 737.3 162.312C735.316 160.2 734.324 157.192 734.324 153.288C734.324 150.024 735.252 147.144 737.108 144.648C739.028 142.088 741.78 140.104 745.364 138.696C749.012 137.288 753.3 136.584 758.228 136.584C761.876 136.584 765.492 137 769.076 137.832C772.724 138.6 775.732 139.688 778.1 141.096L773.108 151.752C768.564 149.192 763.604 147.912 758.228 147.912C755.028 147.912 752.628 148.36 751.028 149.256C749.428 150.152 748.628 151.304 748.628 152.712C748.628 154.312 749.492 155.432 751.22 156.072C752.948 156.712 755.7 157.32 759.476 157.896C763.7 158.6 767.156 159.368 769.844 160.2C772.532 160.968 774.868 162.408 776.852 164.52C778.836 166.632 779.828 169.576 779.828 173.352C779.828 176.552 778.868 179.4 776.948 181.896C775.028 184.392 772.212 186.344 768.5 187.752C764.852 189.096 760.5 189.768 755.444 189.768Z" fill="#F9F9F9"/>
<path d="M114.912 333.576C110.112 333.576 106.368 332.248 103.68 329.592C101.024 326.936 99.696 323.144 99.696 318.216V299.4H107.472V317.928C107.472 323.944 109.968 326.952 114.96 326.952C117.392 326.952 119.248 326.232 120.528 324.792C121.808 323.32 122.448 321.032 122.448 317.928V299.4H130.128V318.216C130.128 323.144 128.784 326.936 126.096 329.592C123.44 332.248 119.712 333.576 114.912 333.576ZM137.812 299.4H145.588V333H137.812V299.4ZM163.834 292.584H170.506L154.666 337.8H147.994L163.834 292.584ZM187.287 333.576C182.487 333.576 178.743 332.248 176.055 329.592C173.399 326.936 172.071 323.144 172.071 318.216V299.4H179.847V317.928C179.847 323.944 182.343 326.952 187.335 326.952C189.767 326.952 191.623 326.232 192.903 324.792C194.183 323.32 194.823 321.032 194.823 317.928V299.4H202.503V318.216C202.503 323.144 201.159 326.936 198.471 329.592C195.815 332.248 192.087 333.576 187.287 333.576ZM230.886 333L222.774 321.336L214.806 333H205.878L218.31 315.912L206.502 299.4H215.334L223.062 310.296L230.646 299.4H239.046L227.334 315.624L239.862 333H230.886ZM281.259 297.384V333H276.843V328.968C275.819 330.376 274.523 331.448 272.955 332.184C271.387 332.92 269.659 333.288 267.771 333.288C265.307 333.288 263.099 332.744 261.147 331.656C259.195 330.568 257.659 329.048 256.539 327.096C255.451 325.112 254.907 322.84 254.907 320.28C254.907 317.72 255.451 315.464 256.539 313.512C257.659 311.56 259.195 310.04 261.147 308.952C263.099 307.864 265.307 307.32 267.771 307.32C269.595 307.32 271.275 307.672 272.811 308.376C274.347 309.048 275.627 310.056 276.651 311.4V297.384H281.259ZM268.155 329.256C269.755 329.256 271.211 328.888 272.523 328.152C273.835 327.384 274.859 326.328 275.595 324.984C276.331 323.608 276.699 322.04 276.699 320.28C276.699 318.52 276.331 316.968 275.595 315.624C274.859 314.248 273.835 313.192 272.523 312.456C271.211 311.72 269.755 311.352 268.155 311.352C266.523 311.352 265.051 311.72 263.739 312.456C262.459 313.192 261.435 314.248 260.667 315.624C259.931 316.968 259.563 318.52 259.563 320.28C259.563 322.04 259.931 323.608 260.667 324.984C261.435 326.328 262.459 327.384 263.739 328.152C265.051 328.888 266.523 329.256 268.155 329.256ZM312.969 320.424C312.969 320.776 312.937 321.24 312.873 321.816H292.233C292.521 324.056 293.497 325.864 295.161 327.24C296.857 328.584 298.953 329.256 301.449 329.256C304.489 329.256 306.937 328.232 308.793 326.184L311.337 329.16C310.185 330.504 308.745 331.528 307.017 332.232C305.321 332.936 303.417 333.288 301.305 333.288C298.617 333.288 296.233 332.744 294.153 331.656C292.073 330.536 290.457 328.984 289.305 327C288.185 325.016 287.625 322.776 287.625 320.28C287.625 317.816 288.169 315.592 289.257 313.608C290.377 311.624 291.897 310.088 293.817 309C295.769 307.88 297.961 307.32 300.393 307.32C302.825 307.32 304.985 307.88 306.873 309C308.793 310.088 310.281 311.624 311.337 313.608C312.425 315.592 312.969 317.864 312.969 320.424ZM300.393 311.208C298.185 311.208 296.329 311.88 294.825 313.224C293.353 314.568 292.489 316.328 292.233 318.504H308.553C308.297 316.36 307.417 314.616 305.913 313.272C304.441 311.896 302.601 311.208 300.393 311.208ZM326.664 333.288C324.584 333.288 322.584 333.016 320.664 332.472C318.744 331.896 317.24 331.176 316.152 330.312L318.072 326.664C319.192 327.464 320.552 328.104 322.152 328.584C323.752 329.064 325.368 329.304 327 329.304C331.032 329.304 333.048 328.152 333.048 325.848C333.048 325.08 332.776 324.472 332.232 324.024C331.688 323.576 331 323.256 330.168 323.064C329.368 322.84 328.216 322.6 326.712 322.344C324.664 322.024 322.984 321.656 321.672 321.24C320.392 320.824 319.288 320.12 318.36 319.128C317.432 318.136 316.968 316.744 316.968 314.952C316.968 312.648 317.928 310.808 319.848 309.432C321.768 308.024 324.344 307.32 327.576 307.32C329.272 307.32 330.968 307.528 332.664 307.944C334.36 308.36 335.752 308.92 336.84 309.624L334.872 313.272C332.792 311.928 330.344 311.256 327.528 311.256C325.576 311.256 324.088 311.576 323.064 312.216C322.04 312.856 321.528 313.704 321.528 314.76C321.528 315.592 321.816 316.248 322.392 316.728C322.968 317.208 323.672 317.56 324.504 317.784C325.368 318.008 326.568 318.264 328.104 318.552C330.152 318.904 331.8 319.288 333.048 319.704C334.328 320.088 335.416 320.76 336.312 321.72C337.208 322.68 337.656 324.024 337.656 325.752C337.656 328.056 336.664 329.896 334.68 331.272C332.728 332.616 330.056 333.288 326.664 333.288ZM343.415 307.56H348.023V333H343.415V307.56ZM345.719 302.664C344.823 302.664 344.071 302.376 343.463 301.8C342.887 301.224 342.599 300.52 342.599 299.688C342.599 298.856 342.887 298.152 343.463 297.576C344.071 296.968 344.823 296.664 345.719 296.664C346.615 296.664 347.351 296.952 347.927 297.528C348.535 298.072 348.839 298.76 348.839 299.592C348.839 300.456 348.535 301.192 347.927 301.8C347.351 302.376 346.615 302.664 345.719 302.664ZM381.157 307.56V329.544C381.157 333.992 380.053 337.272 377.845 339.384C375.637 341.528 372.341 342.6 367.957 342.6C365.557 342.6 363.269 342.264 361.093 341.592C358.917 340.952 357.157 340.024 355.813 338.808L358.021 335.256C359.205 336.28 360.661 337.08 362.389 337.656C364.149 338.264 365.957 338.568 367.813 338.568C370.789 338.568 372.981 337.864 374.389 336.456C375.829 335.048 376.549 332.904 376.549 330.024V328.008C375.461 329.32 374.117 330.312 372.517 330.984C370.949 331.624 369.237 331.944 367.381 331.944C364.949 331.944 362.741 331.432 360.757 330.408C358.805 329.352 357.269 327.896 356.149 326.04C355.029 324.152 354.469 322.008 354.469 319.608C354.469 317.208 355.029 315.08 356.149 313.224C357.269 311.336 358.805 309.88 360.757 308.856C362.741 307.832 364.949 307.32 367.381 307.32C369.301 307.32 371.077 307.672 372.709 308.376C374.373 309.08 375.733 310.12 376.789 311.496V307.56H381.157ZM367.909 327.912C369.573 327.912 371.061 327.56 372.373 326.856C373.717 326.152 374.757 325.176 375.493 323.928C376.261 322.648 376.645 321.208 376.645 319.608C376.645 317.144 375.829 315.16 374.197 313.656C372.565 312.12 370.469 311.352 367.909 311.352C365.317 311.352 363.205 312.12 361.573 313.656C359.941 315.16 359.125 317.144 359.125 319.608C359.125 321.208 359.493 322.648 360.229 323.928C360.997 325.176 362.037 326.152 363.349 326.856C364.693 327.56 366.213 327.912 367.909 327.912ZM403.546 307.32C406.778 307.32 409.338 308.264 411.226 310.152C413.146 312.008 414.106 314.744 414.106 318.36V333H409.498V318.888C409.498 316.424 408.906 314.568 407.722 313.32C406.538 312.072 404.842 311.448 402.634 311.448C400.138 311.448 398.17 312.184 396.73 313.656C395.29 315.096 394.57 317.176 394.57 319.896V333H389.962V307.56H394.378V311.4C395.306 310.088 396.554 309.08 398.122 308.376C399.722 307.672 401.53 307.32 403.546 307.32ZM445.766 320.424C445.766 320.776 445.734 321.24 445.67 321.816H425.03C425.318 324.056 426.294 325.864 427.958 327.24C429.654 328.584 431.75 329.256 434.246 329.256C437.286 329.256 439.734 328.232 441.59 326.184L444.134 329.16C442.982 330.504 441.542 331.528 439.814 332.232C438.118 332.936 436.214 333.288 434.102 333.288C431.414 333.288 429.03 332.744 426.95 331.656C424.87 330.536 423.254 328.984 422.102 327C420.982 325.016 420.422 322.776 420.422 320.28C420.422 317.816 420.966 315.592 422.054 313.608C423.174 311.624 424.694 310.088 426.614 309C428.566 307.88 430.758 307.32 433.19 307.32C435.622 307.32 437.782 307.88 439.67 309C441.59 310.088 443.078 311.624 444.134 313.608C445.222 315.592 445.766 317.864 445.766 320.424ZM433.19 311.208C430.982 311.208 429.126 311.88 427.622 313.224C426.15 314.568 425.286 316.328 425.03 318.504H441.35C441.094 316.36 440.214 314.616 438.71 313.272C437.238 311.896 435.398 311.208 433.19 311.208ZM456.581 311.832C457.381 310.36 458.565 309.24 460.133 308.472C461.701 307.704 463.605 307.32 465.845 307.32V311.784C465.589 311.752 465.237 311.736 464.789 311.736C462.293 311.736 460.325 312.488 458.885 313.992C457.477 315.464 456.773 317.576 456.773 320.328V333H452.165V307.56H456.581V311.832ZM509.991 333.528L505.527 329.064C502.551 331.944 498.807 333.384 494.295 333.384C492.055 333.384 490.039 333.016 488.247 332.28C486.455 331.544 485.047 330.52 484.023 329.208C483.031 327.864 482.535 326.344 482.535 324.648C482.535 322.6 483.159 320.792 484.407 319.224C485.687 317.624 487.783 315.992 490.695 314.328C489.223 312.856 488.183 311.528 487.575 310.344C486.967 309.16 486.663 307.928 486.663 306.648C486.663 304.376 487.479 302.552 489.111 301.176C490.775 299.8 492.983 299.112 495.735 299.112C498.295 299.112 500.327 299.736 501.831 300.984C503.335 302.232 504.087 303.944 504.087 306.12C504.087 307.816 503.527 309.336 502.407 310.68C501.319 312.024 499.495 313.432 496.935 314.904L505.239 323.16C506.199 321.336 506.887 319.304 507.303 317.064L510.999 318.264C510.423 321.208 509.447 323.768 508.071 325.944L512.583 330.456L509.991 333.528ZM495.735 302.472C494.231 302.472 493.047 302.856 492.183 303.624C491.351 304.36 490.935 305.336 490.935 306.552C490.935 307.416 491.159 308.248 491.607 309.048C492.087 309.848 492.999 310.936 494.343 312.312C496.551 311.064 498.071 309.992 498.903 309.096C499.767 308.2 500.199 307.224 500.199 306.168C500.199 305.048 499.799 304.152 498.999 303.48C498.231 302.808 497.143 302.472 495.735 302.472ZM494.583 329.544C497.911 329.544 500.647 328.488 502.791 326.376L493.239 316.872C490.935 318.152 489.319 319.352 488.391 320.472C487.495 321.56 487.047 322.792 487.047 324.168C487.047 325.768 487.735 327.064 489.111 328.056C490.519 329.048 492.343 329.544 494.583 329.544ZM107.664 366.752H114.288V372.512H107.856V392H100.368V372.512H96.384V366.752H100.368V365.6C100.368 362.656 101.232 360.32 102.96 358.592C104.72 356.864 107.184 356 110.352 356C111.472 356 112.528 356.128 113.52 356.384C114.544 356.608 115.392 356.944 116.064 357.392L114.096 362.816C113.232 362.208 112.224 361.904 111.072 361.904C108.8 361.904 107.664 363.152 107.664 365.648V366.752ZM129.014 369.584C129.91 368.336 131.11 367.392 132.614 366.752C134.15 366.112 135.91 365.792 137.894 365.792V372.704C137.062 372.64 136.502 372.608 136.214 372.608C134.07 372.608 132.39 373.216 131.174 374.432C129.958 375.616 129.35 377.408 129.35 379.808V392H121.862V366.176H129.014V369.584ZM154.4 392.384C151.68 392.384 149.232 391.824 147.056 390.704C144.912 389.552 143.232 387.968 142.016 385.952C140.8 383.936 140.192 381.648 140.192 379.088C140.192 376.528 140.8 374.24 142.016 372.224C143.232 370.208 144.912 368.64 147.056 367.52C149.232 366.368 151.68 365.792 154.4 365.792C157.12 365.792 159.552 366.368 161.696 367.52C163.84 368.64 165.52 370.208 166.736 372.224C167.952 374.24 168.56 376.528 168.56 379.088C168.56 381.648 167.952 383.936 166.736 385.952C165.52 387.968 163.84 389.552 161.696 390.704C159.552 391.824 157.12 392.384 154.4 392.384ZM154.4 386.24C156.32 386.24 157.888 385.6 159.104 384.32C160.352 383.008 160.976 381.264 160.976 379.088C160.976 376.912 160.352 375.184 159.104 373.904C157.888 372.592 156.32 371.936 154.4 371.936C152.48 371.936 150.896 372.592 149.648 373.904C148.4 375.184 147.776 376.912 147.776 379.088C147.776 381.264 148.4 383.008 149.648 384.32C150.896 385.6 152.48 386.24 154.4 386.24ZM189.261 365.792C192.461 365.792 195.037 366.752 196.989 368.672C198.973 370.592 199.965 373.44 199.965 377.216V392H192.477V378.368C192.477 376.32 192.029 374.8 191.133 373.808C190.237 372.784 188.941 372.272 187.245 372.272C185.357 372.272 183.853 372.864 182.733 374.048C181.613 375.2 181.053 376.928 181.053 379.232V392H173.565V366.176H180.717V369.2C181.709 368.112 182.941 367.28 184.413 366.704C185.885 366.096 187.501 365.792 189.261 365.792ZM223.409 390.752C222.673 391.296 221.761 391.712 220.673 392C219.617 392.256 218.497 392.384 217.313 392.384C214.241 392.384 211.857 391.6 210.161 390.032C208.497 388.464 207.665 386.16 207.665 383.12V372.512H203.681V366.752H207.665V360.464H215.153V366.752H221.585V372.512H215.153V383.024C215.153 384.112 215.425 384.96 215.969 385.568C216.545 386.144 217.345 386.432 218.369 386.432C219.553 386.432 220.561 386.112 221.393 385.472L223.409 390.752ZM226.184 375.488H239.768V381.488H226.184V375.488ZM271.424 379.184C271.424 379.28 271.376 379.952 271.28 381.2H251.744C252.096 382.8 252.928 384.064 254.24 384.992C255.552 385.92 257.184 386.384 259.136 386.384C260.48 386.384 261.664 386.192 262.688 385.808C263.744 385.392 264.72 384.752 265.616 383.888L269.6 388.208C267.168 390.992 263.616 392.384 258.944 392.384C256.032 392.384 253.456 391.824 251.216 390.704C248.976 389.552 247.248 387.968 246.032 385.952C244.816 383.936 244.208 381.648 244.208 379.088C244.208 376.56 244.8 374.288 245.984 372.272C247.2 370.224 248.848 368.64 250.928 367.52C253.04 366.368 255.392 365.792 257.984 365.792C260.512 365.792 262.8 366.336 264.848 367.424C266.896 368.512 268.496 370.08 269.648 372.128C270.832 374.144 271.424 376.496 271.424 379.184ZM258.032 371.456C256.336 371.456 254.912 371.936 253.76 372.896C252.608 373.856 251.904 375.168 251.648 376.832H264.368C264.112 375.2 263.408 373.904 262.256 372.944C261.104 371.952 259.696 371.456 258.032 371.456ZM292.105 365.792C295.305 365.792 297.881 366.752 299.833 368.672C301.817 370.592 302.809 373.44 302.809 377.216V392H295.321V378.368C295.321 376.32 294.873 374.8 293.977 373.808C293.081 372.784 291.785 372.272 290.089 372.272C288.201 372.272 286.697 372.864 285.577 374.048C284.457 375.2 283.897 376.928 283.897 379.232V392H276.409V366.176H283.561V369.2C284.553 368.112 285.785 367.28 287.257 366.704C288.729 366.096 290.345 365.792 292.105 365.792ZM336.182 356.384V392H329.03V389.024C327.174 391.264 324.486 392.384 320.966 392.384C318.534 392.384 316.326 391.84 314.342 390.752C312.39 389.664 310.854 388.112 309.734 386.096C308.614 384.08 308.054 381.744 308.054 379.088C308.054 376.432 308.614 374.096 309.734 372.08C310.854 370.064 312.39 368.512 314.342 367.424C316.326 366.336 318.534 365.792 320.966 365.792C324.262 365.792 326.838 366.832 328.694 368.912V356.384H336.182ZM322.262 386.24C324.15 386.24 325.718 385.6 326.966 384.32C328.214 383.008 328.838 381.264 328.838 379.088C328.838 376.912 328.214 375.184 326.966 373.904C325.718 372.592 324.15 371.936 322.262 371.936C320.342 371.936 318.758 372.592 317.51 373.904C316.262 375.184 315.638 376.912 315.638 379.088C315.638 381.264 316.262 383.008 317.51 384.32C318.758 385.6 320.342 386.24 322.262 386.24ZM383.01 356.384V392H375.858V389.024C374.002 391.264 371.314 392.384 367.794 392.384C365.362 392.384 363.154 391.84 361.17 390.752C359.218 389.664 357.682 388.112 356.562 386.096C355.442 384.08 354.882 381.744 354.882 379.088C354.882 376.432 355.442 374.096 356.562 372.08C357.682 370.064 359.218 368.512 361.17 367.424C363.154 366.336 365.362 365.792 367.794 365.792C371.09 365.792 373.666 366.832 375.522 368.912V356.384H383.01ZM369.09 386.24C370.978 386.24 372.546 385.6 373.794 384.32C375.042 383.008 375.666 381.264 375.666 379.088C375.666 376.912 375.042 375.184 373.794 373.904C372.546 372.592 370.978 371.936 369.09 371.936C367.17 371.936 365.586 372.592 364.338 373.904C363.09 375.184 362.466 376.912 362.466 379.088C362.466 381.264 363.09 383.008 364.338 384.32C365.586 385.6 367.17 386.24 369.09 386.24ZM415.236 379.184C415.236 379.28 415.188 379.952 415.092 381.2H395.556C395.908 382.8 396.74 384.064 398.052 384.992C399.364 385.92 400.996 386.384 402.948 386.384C404.292 386.384 405.476 386.192 406.5 385.808C407.556 385.392 408.532 384.752 409.428 383.888L413.412 388.208C410.98 390.992 407.428 392.384 402.756 392.384C399.844 392.384 397.268 391.824 395.028 390.704C392.788 389.552 391.06 387.968 389.844 385.952C388.628 383.936 388.02 381.648 388.02 379.088C388.02 376.56 388.612 374.288 389.796 372.272C391.012 370.224 392.66 368.64 394.74 367.52C396.852 366.368 399.204 365.792 401.796 365.792C404.324 365.792 406.612 366.336 408.66 367.424C410.708 368.512 412.308 370.08 413.46 372.128C414.644 374.144 415.236 376.496 415.236 379.184ZM401.844 371.456C400.148 371.456 398.724 371.936 397.572 372.896C396.42 373.856 395.716 375.168 395.46 376.832H408.18C407.924 375.2 407.22 373.904 406.068 372.944C404.916 371.952 403.508 371.456 401.844 371.456ZM445.385 366.176L434.489 392H426.761L415.913 366.176H423.641L430.793 383.744L438.185 366.176H445.385ZM473.033 379.184C473.033 379.28 472.985 379.952 472.889 381.2H453.353C453.705 382.8 454.537 384.064 455.849 384.992C457.161 385.92 458.793 386.384 460.745 386.384C462.089 386.384 463.273 386.192 464.297 385.808C465.353 385.392 466.329 384.752 467.225 383.888L471.209 388.208C468.777 390.992 465.225 392.384 460.553 392.384C457.641 392.384 455.065 391.824 452.825 390.704C450.585 389.552 448.857 387.968 447.641 385.952C446.425 383.936 445.817 381.648 445.817 379.088C445.817 376.56 446.409 374.288 447.593 372.272C448.809 370.224 450.457 368.64 452.537 367.52C454.649 366.368 457.001 365.792 459.593 365.792C462.121 365.792 464.409 366.336 466.457 367.424C468.505 368.512 470.105 370.08 471.257 372.128C472.441 374.144 473.033 376.496 473.033 379.184ZM459.641 371.456C457.945 371.456 456.521 371.936 455.369 372.896C454.217 373.856 453.513 375.168 453.257 376.832H465.977C465.721 375.2 465.017 373.904 463.865 372.944C462.713 371.952 461.305 371.456 459.641 371.456ZM478.019 356.384H485.507V392H478.019V356.384ZM504.744 392.384C502.024 392.384 499.576 391.824 497.4 390.704C495.256 389.552 493.576 387.968 492.36 385.952C491.144 383.936 490.536 381.648 490.536 379.088C490.536 376.528 491.144 374.24 492.36 372.224C493.576 370.208 495.256 368.64 497.4 367.52C499.576 366.368 502.024 365.792 504.744 365.792C507.464 365.792 509.896 366.368 512.04 367.52C514.184 368.64 515.864 370.208 517.08 372.224C518.296 374.24 518.904 376.528 518.904 379.088C518.904 381.648 518.296 383.936 517.08 385.952C515.864 387.968 514.184 389.552 512.04 390.704C509.896 391.824 507.464 392.384 504.744 392.384ZM504.744 386.24C506.664 386.24 508.232 385.6 509.448 384.32C510.696 383.008 511.32 381.264 511.32 379.088C511.32 376.912 510.696 375.184 509.448 373.904C508.232 372.592 506.664 371.936 504.744 371.936C502.824 371.936 501.24 372.592 499.992 373.904C498.744 375.184 498.12 376.912 498.12 379.088C498.12 381.264 498.744 383.008 499.992 384.32C501.24 385.6 502.824 386.24 504.744 386.24ZM539.173 365.792C541.573 365.792 543.749 366.352 545.701 367.472C547.685 368.56 549.237 370.112 550.357 372.128C551.477 374.112 552.037 376.432 552.037 379.088C552.037 381.744 551.477 384.08 550.357 386.096C549.237 388.08 547.685 389.632 545.701 390.752C543.749 391.84 541.573 392.384 539.173 392.384C535.877 392.384 533.285 391.344 531.397 389.264V401.312H523.909V366.176H531.061V369.152C532.917 366.912 535.621 365.792 539.173 365.792ZM537.877 386.24C539.797 386.24 541.365 385.6 542.581 384.32C543.829 383.008 544.453 381.264 544.453 379.088C544.453 376.912 543.829 375.184 542.581 373.904C541.365 372.592 539.797 371.936 537.877 371.936C535.957 371.936 534.373 372.592 533.125 373.904C531.909 375.184 531.301 376.912 531.301 379.088C531.301 381.264 531.909 383.008 533.125 384.32C534.373 385.6 535.957 386.24 537.877 386.24ZM582.346 379.184C582.346 379.28 582.298 379.952 582.202 381.2H562.666C563.018 382.8 563.85 384.064 565.162 384.992C566.474 385.92 568.106 386.384 570.058 386.384C571.402 386.384 572.586 386.192 573.61 385.808C574.666 385.392 575.642 384.752 576.538 383.888L580.522 388.208C578.09 390.992 574.538 392.384 569.866 392.384C566.954 392.384 564.378 391.824 562.138 390.704C559.898 389.552 558.17 387.968 556.954 385.952C555.738 383.936 555.13 381.648 555.13 379.088C555.13 376.56 555.722 374.288 556.906 372.272C558.122 370.224 559.77 368.64 561.85 367.52C563.962 366.368 566.314 365.792 568.906 365.792C571.434 365.792 573.722 366.336 575.77 367.424C577.818 368.512 579.418 370.08 580.57 372.128C581.754 374.144 582.346 376.496 582.346 379.184ZM568.954 371.456C567.258 371.456 565.834 371.936 564.682 372.896C563.53 373.856 562.826 375.168 562.57 376.832H575.29C575.034 375.2 574.33 373.904 573.178 372.944C572.026 371.952 570.618 371.456 568.954 371.456ZM594.483 369.584C595.379 368.336 596.579 367.392 598.083 366.752C599.619 366.112 601.379 365.792 603.363 365.792V372.704C602.531 372.64 601.971 372.608 601.683 372.608C599.539 372.608 597.859 373.216 596.643 374.432C595.427 375.616 594.819 377.408 594.819 379.808V392H587.331V366.176H594.483V369.584Z" fill="#F9F9F9"/>
<path d="M1224 357.72L1314 120L1404 357.72L1314 261.148L1224 357.72Z" fill="#F9F9F9"/>
<path d="M1224 357.72L1314 261.148L1404 357.72L1314 298.286L1224 357.72Z" fill="#DDDDDD"/>
<path d="M1284 328.003L1314 313.144L1344.01 328.003L1314 380L1284 328.003Z" fill="url(#paint1_linear)"/>
<g opacity="0.3">
<path d="M149.342 366.762L208.383 318.5L196.107 393.761L187.21 355.171L149.342 366.762Z" fill="#F9F9F9"/>
<path d="M149.342 366.762L187.211 355.171L196.107 393.762L181.64 364.82L149.342 366.762Z" fill="#DDDDDD"/>
<path d="M169.388 368.041L179.412 368.681L184.978 377.042L169.383 386.05L169.388 368.041Z" fill="url(#paint2_linear)"/>
</g>
<g opacity="0.3">
<path d="M922.487 241.142L904.074 128.25L992.635 200.642L935.832 183.257L922.487 241.142Z" fill="#F9F9F9"/>
<path d="M922.487 241.142L935.832 183.257L992.635 200.642L944.189 197.73L922.487 241.142Z" fill="#DDDDDD"/>
<path d="M939.183 216.061L947.533 203.52L962.568 202.56L962.575 229.574L939.183 216.061Z" fill="url(#paint3_linear)"/>
</g>
<defs>
<linearGradient id="paint0_linear" x1="0" y1="0" x2="76.4584" y2="663.934" gradientUnits="userSpaceOnUse">
<stop stop-color="#010726"/>
<stop offset="0.155191" stop-color="#05163F"/>
<stop offset="0.371965" stop-color="#122058"/>
<stop offset="0.622651" stop-color="#252872"/>
<stop offset="1" stop-color="#3C308C"/>
</linearGradient>
<linearGradient id="paint1_linear" x1="1314" y1="313.154" x2="1314" y2="380.006" gradientUnits="userSpaceOnUse">
<stop stop-color="#FFA200"/>
<stop offset="1" stop-color="#FFCC66"/>
<stop offset="1" stop-color="#FFCC66"/>
</linearGradient>
<linearGradient id="paint2_linear" x1="179.409" y1="368.682" x2="169.382" y2="386.052" gradientUnits="userSpaceOnUse">
<stop stop-color="#FFA200"/>
<stop offset="1" stop-color="#FFCC66"/>
<stop offset="1" stop-color="#FFCC66"/>
</linearGradient>
<linearGradient id="paint3_linear" x1="947.533" y1="203.525" x2="962.575" y2="229.577" gradientUnits="userSpaceOnUse">
<stop stop-color="#FFA200"/>
<stop offset="1" stop-color="#FFCC66"/>
<stop offset="1" stop-color="#FFCC66"/>
</linearGradient>
</defs>
</svg>
